<svg width="360" height="100" viewBox="0 0 360 100" fill="none" xmlns="http://www.w3.org/2000/svg">
<path d="M15.5391 68.0312C14.8828 67.9219 14.1719 67.8672 13.4062 67.8672C10.5625 67.8672 8.63281 69.0781 7.61719 71.5V89.5H3.28125V64.1406H7.5L7.57031 67.0703C8.99219 64.8047 11.0078 63.6719 13.6172 63.6719C14.4609 63.6719 15.1016 63.7812 15.5391 64V68.0312ZM29.6016 89.9688C26.1641 89.9688 23.3672 88.8438 21.2109 86.5938C19.0547 84.3281 17.9766 81.3047 17.9766 77.5234V76.7266C17.9766 74.2109 18.4531 71.9688 19.4062 70C20.375 68.0156 21.7188 66.4688 23.4375 65.3594C25.1719 64.2344 27.0469 63.6719 29.0625 63.6719C32.3594 63.6719 34.9219 64.7578 36.75 66.9297C38.5781 69.1016 39.4922 72.2109 39.4922 76.2578V78.0625H22.3125C22.375 80.5625 23.1016 82.5859 24.4922 84.1328C25.8984 85.6641 27.6797 86.4297 29.8359 86.4297C31.3672 86.4297 32.6641 86.1172 33.7266 85.4922C34.7891 84.8672 35.7188 84.0391 36.5156 83.0078L39.1641 85.0703C37.0391 88.3359 33.8516 89.9688 29.6016 89.9688ZM29.0625 67.2344C27.3125 67.2344 25.8438 67.875 24.6562 69.1562C23.4688 70.4219 22.7344 72.2031 22.4531 74.5H35.1562V74.1719C35.0312 71.9688 34.4375 70.2656 33.375 69.0625C32.3125 67.8438 30.875 67.2344 29.0625 67.2344ZM65.9531 77.1016C65.9531 80.9609 65.0703 84.0703 63.3047 86.4297C61.5391 88.7891 59.1484 89.9688 56.1328 89.9688C53.0547 89.9688 50.6328 88.9922 48.8672 87.0391V99.25H44.5312V64.1406H48.4922L48.7031 66.9531C50.4688 64.7656 52.9219 63.6719 56.0625 63.6719C59.1094 63.6719 61.5156 64.8203 63.2812 67.1172C65.0625 69.4141 65.9531 72.6094 65.9531 76.7031V77.1016ZM61.6172 76.6094C61.6172 73.75 61.0078 71.4922 59.7891 69.8359C58.5703 68.1797 56.8984 67.3516 54.7734 67.3516C52.1484 67.3516 50.1797 68.5156 48.8672 70.8438V82.9609C50.1641 85.2734 52.1484 86.4297 54.8203 86.4297C56.8984 86.4297 58.5469 85.6094 59.7656 83.9688C61 82.3125 61.6172 79.8594 61.6172 76.6094ZM70.3359 76.5859C70.3359 74.1016 70.8203 71.8672 71.7891 69.8828C72.7734 67.8984 74.1328 66.3672 75.8672 65.2891C77.6172 64.2109 79.6094 63.6719 81.8438 63.6719C85.2969 63.6719 88.0859 64.8672 90.2109 67.2578C92.3516 69.6484 93.4219 72.8281 93.4219 76.7969V77.1016C93.4219 79.5703 92.9453 81.7891 91.9922 83.7578C91.0547 85.7109 89.7031 87.2344 87.9375 88.3281C86.1875 89.4219 84.1719 89.9688 81.8906 89.9688C78.4531 89.9688 75.6641 88.7734 73.5234 86.3828C71.3984 83.9922 70.3359 80.8281 70.3359 76.8906V76.5859ZM74.6953 77.1016C74.6953 79.9141 75.3438 82.1719 76.6406 83.875C77.9531 85.5781 79.7031 86.4297 81.8906 86.4297C84.0938 86.4297 85.8438 85.5703 87.1406 83.8516C88.4375 82.1172 89.0859 79.6953 89.0859 76.5859C89.0859 73.8047 88.4219 71.5547 87.0938 69.8359C85.7812 68.1016 84.0312 67.2344 81.8438 67.2344C79.7031 67.2344 77.9766 68.0859 76.6641 69.7891C75.3516 71.4922 74.6953 73.9297 74.6953 77.1016ZM113.625 82.7734C113.625 81.6016 113.18 80.6953 112.289 80.0547C111.414 79.3984 109.875 78.8359 107.672 78.3672C105.484 77.8984 103.742 77.3359 102.445 76.6797C101.164 76.0234 100.211 75.2422 99.5859 74.3359C98.9766 73.4297 98.6719 72.3516 98.6719 71.1016C98.6719 69.0234 99.5469 67.2656 101.297 65.8281C103.062 64.3906 105.312 63.6719 108.047 63.6719C110.922 63.6719 113.25 64.4141 115.031 65.8984C116.828 67.3828 117.727 69.2812 117.727 71.5938H113.367C113.367 70.4062 112.859 69.3828 111.844 68.5234C110.844 67.6641 109.578 67.2344 108.047 67.2344C106.469 67.2344 105.234 67.5781 104.344 68.2656C103.453 68.9531 103.008 69.8516 103.008 70.9609C103.008 72.0078 103.422 72.7969 104.25 73.3281C105.078 73.8594 106.57 74.3672 108.727 74.8516C110.898 75.3359 112.656 75.9141 114 76.5859C115.344 77.2578 116.336 78.0703 116.977 79.0234C117.633 79.9609 117.961 81.1094 117.961 82.4688C117.961 84.7344 117.055 86.5547 115.242 87.9297C113.43 89.2891 111.078 89.9688 108.188 89.9688C106.156 89.9688 104.359 89.6094 102.797 88.8906C101.234 88.1719 100.008 87.1719 99.1172 85.8906C98.2422 84.5938 97.8047 83.1953 97.8047 81.6953H102.141C102.219 83.1484 102.797 84.3047 103.875 85.1641C104.969 86.0078 106.406 86.4297 108.188 86.4297C109.828 86.4297 111.141 86.1016 112.125 85.4453C113.125 84.7734 113.625 83.8828 113.625 82.7734ZM128.32 89.5H123.984V64.1406H128.32V89.5ZM123.633 57.4141C123.633 56.7109 123.844 56.1172 124.266 55.6328C124.703 55.1484 125.344 54.9062 126.188 54.9062C127.031 54.9062 127.672 55.1484 128.109 55.6328C128.547 56.1172 128.766 56.7109 128.766 57.4141C128.766 58.1172 128.547 58.7031 128.109 59.1719C127.672 59.6406 127.031 59.875 126.188 59.875C125.344 59.875 124.703 59.6406 124.266 59.1719C123.844 58.7031 123.633 58.1172 123.633 57.4141ZM141.164 58V64.1406H145.898V67.4922H141.164V83.2188C141.164 84.2344 141.375 85 141.797 85.5156C142.219 86.0156 142.938 86.2656 143.953 86.2656C144.453 86.2656 145.141 86.1719 146.016 85.9844V89.5C144.875 89.8125 143.766 89.9688 142.688 89.9688C140.75 89.9688 139.289 89.3828 138.305 88.2109C137.32 87.0391 136.828 85.375 136.828 83.2188V67.4922H132.211V64.1406H136.828V58H141.164ZM149.367 76.5859C149.367 74.1016 149.852 71.8672 150.82 69.8828C151.805 67.8984 153.164 66.3672 154.898 65.2891C156.648 64.2109 158.641 63.6719 160.875 63.6719C164.328 63.6719 167.117 64.8672 169.242 67.2578C171.383 69.6484 172.453 72.8281 172.453 76.7969V77.1016C172.453 79.5703 171.977 81.7891 171.023 83.7578C170.086 85.7109 168.734 87.2344 166.969 88.3281C165.219 89.4219 163.203 89.9688 160.922 89.9688C157.484 89.9688 154.695 88.7734 152.555 86.3828C150.43 83.9922 149.367 80.8281 149.367 76.8906V76.5859ZM153.727 77.1016C153.727 79.9141 154.375 82.1719 155.672 83.875C156.984 85.5781 158.734 86.4297 160.922 86.4297C163.125 86.4297 164.875 85.5703 166.172 83.8516C167.469 82.1172 168.117 79.6953 168.117 76.5859C168.117 73.8047 167.453 71.5547 166.125 69.8359C164.812 68.1016 163.062 67.2344 160.875 67.2344C158.734 67.2344 157.008 68.0859 155.695 69.7891C154.383 71.4922 153.727 73.9297 153.727 77.1016ZM190.148 68.0312C189.492 67.9219 188.781 67.8672 188.016 67.8672C185.172 67.8672 183.242 69.0781 182.227 71.5V89.5H177.891V64.1406H182.109L182.18 67.0703C183.602 64.8047 185.617 63.6719 188.227 63.6719C189.07 63.6719 189.711 63.7812 190.148 64V68.0312ZM198.867 89.5H194.531V64.1406H198.867V89.5ZM194.18 57.4141C194.18 56.7109 194.391 56.1172 194.812 55.6328C195.25 55.1484 195.891 54.9062 196.734 54.9062C197.578 54.9062 198.219 55.1484 198.656 55.6328C199.094 56.1172 199.312 56.7109 199.312 57.4141C199.312 58.1172 199.094 58.7031 198.656 59.1719C198.219 59.6406 197.578 59.875 196.734 59.875C195.891 59.875 195.25 59.6406 194.812 59.1719C194.391 58.7031 194.18 58.1172 194.18 57.4141ZM216.352 89.9688C212.914 89.9688 210.117 88.8438 207.961 86.5938C205.805 84.3281 204.727 81.3047 204.727 77.5234V76.7266C204.727 74.2109 205.203 71.9688 206.156 70C207.125 68.0156 208.469 66.4688 210.188 65.3594C211.922 64.2344 213.797 63.6719 215.812 63.6719C219.109 63.6719 221.672 64.7578 223.5 66.9297C225.328 69.1016 226.242 72.2109 226.242 76.2578V78.0625H209.062C209.125 80.5625 209.852 82.5859 211.242 84.1328C212.648 85.6641 214.43 86.4297 216.586 86.4297C218.117 86.4297 219.414 86.1172 220.477 85.4922C221.539 84.8672 222.469 84.0391 223.266 83.0078L225.914 85.0703C223.789 88.3359 220.602 89.9688 216.352 89.9688ZM215.812 67.2344C214.062 67.2344 212.594 67.875 211.406 69.1562C210.219 70.4219 209.484 72.2031 209.203 74.5H221.906V74.1719C221.781 71.9688 221.188 70.2656 220.125 69.0625C219.062 67.8438 217.625 67.2344 215.812 67.2344ZM246.047 82.7734C246.047 81.6016 245.602 80.6953 244.711 80.0547C243.836 79.3984 242.297 78.8359 240.094 78.3672C237.906 77.8984 236.164 77.3359 234.867 76.6797C233.586 76.0234 232.633 75.2422 232.008 74.3359C231.398 73.4297 231.094 72.3516 231.094 71.1016C231.094 69.0234 231.969 67.2656 233.719 65.8281C235.484 64.3906 237.734 63.6719 240.469 63.6719C243.344 63.6719 245.672 64.4141 247.453 65.8984C249.25 67.3828 250.148 69.2812 250.148 71.5938H245.789C245.789 70.4062 245.281 69.3828 244.266 68.5234C243.266 67.6641 242 67.2344 240.469 67.2344C238.891 67.2344 237.656 67.5781 236.766 68.2656C235.875 68.9531 235.43 69.8516 235.43 70.9609C235.43 72.0078 235.844 72.7969 236.672 73.3281C237.5 73.8594 238.992 74.3672 241.148 74.8516C243.32 75.3359 245.078 75.9141 246.422 76.5859C247.766 77.2578 248.758 78.0703 249.398 79.0234C250.055 79.9609 250.383 81.1094 250.383 82.4688C250.383 84.7344 249.477 86.5547 247.664 87.9297C245.852 89.2891 243.5 89.9688 240.609 89.9688C238.578 89.9688 236.781 89.6094 235.219 88.8906C233.656 88.1719 232.43 87.1719 231.539 85.8906C230.664 84.5938 230.227 83.1953 230.227 81.6953H234.562C234.641 83.1484 235.219 84.3047 236.297 85.1641C237.391 86.0078 238.828 86.4297 240.609 86.4297C242.25 86.4297 243.562 86.1016 244.547 85.4453C245.547 84.7734 246.047 83.8828 246.047 82.7734Z" fill="black"/>
<path d="M159.855 37H156.242V7H159.855V37ZM169.582 37H165.969V15.8672H169.582V37ZM165.676 10.2617C165.676 9.67578 165.852 9.18099 166.203 8.77734C166.568 8.3737 167.102 8.17188 167.805 8.17188C168.508 8.17188 169.042 8.3737 169.406 8.77734C169.771 9.18099 169.953 9.67578 169.953 10.2617C169.953 10.8477 169.771 11.3359 169.406 11.7266C169.042 12.1172 168.508 12.3125 167.805 12.3125C167.102 12.3125 166.568 12.1172 166.203 11.7266C165.852 11.3359 165.676 10.8477 165.676 10.2617ZM187.688 31.3945C187.688 30.418 187.316 29.6628 186.574 29.1289C185.845 28.582 184.562 28.1133 182.727 27.7227C180.904 27.332 179.452 26.8633 178.371 26.3164C177.303 25.7695 176.509 25.1185 175.988 24.3633C175.48 23.6081 175.227 22.7096 175.227 21.668C175.227 19.9362 175.956 18.4714 177.414 17.2734C178.885 16.0755 180.76 15.4766 183.039 15.4766C185.435 15.4766 187.375 16.0951 188.859 17.332C190.357 18.569 191.105 20.151 191.105 22.0781H187.473C187.473 21.0885 187.049 20.2357 186.203 19.5195C185.37 18.8034 184.315 18.4453 183.039 18.4453C181.724 18.4453 180.695 18.7318 179.953 19.3047C179.211 19.8776 178.84 20.6263 178.84 21.5508C178.84 22.4232 179.185 23.0807 179.875 23.5234C180.565 23.9661 181.809 24.3893 183.605 24.793C185.415 25.1966 186.88 25.6784 188 26.2383C189.12 26.7982 189.947 27.4753 190.48 28.2695C191.027 29.0508 191.301 30.0078 191.301 31.1406C191.301 33.0286 190.546 34.5456 189.035 35.6914C187.525 36.8242 185.565 37.3906 183.156 37.3906C181.464 37.3906 179.966 37.0911 178.664 36.4922C177.362 35.8932 176.34 35.0599 175.598 33.9922C174.868 32.9115 174.504 31.7461 174.504 30.4961H178.117C178.182 31.707 178.664 32.6706 179.562 33.3867C180.474 34.0898 181.672 34.4414 183.156 34.4414C184.523 34.4414 185.617 34.168 186.438 33.6211C187.271 33.0612 187.688 32.319 187.688 31.3945ZM200.91 10.75V15.8672H204.855V18.6602H200.91V31.7656C200.91 32.612 201.086 33.25 201.438 33.6797C201.789 34.0964 202.388 34.3047 203.234 34.3047C203.651 34.3047 204.224 34.2266 204.953 34.0703V37C204.003 37.2604 203.078 37.3906 202.18 37.3906C200.565 37.3906 199.348 36.9023 198.527 35.9258C197.707 34.9492 197.297 33.5625 197.297 31.7656V18.6602H193.449V15.8672H197.297V10.75H200.91ZM218.059 26.2383C218.059 24.168 218.462 22.306 219.27 20.6523C220.09 18.9987 221.223 17.7227 222.668 16.8242C224.126 15.9258 225.786 15.4766 227.648 15.4766C230.526 15.4766 232.85 16.4727 234.621 18.4648C236.405 20.457 237.297 23.1068 237.297 26.4141V26.668C237.297 28.7253 236.9 30.5742 236.105 32.2148C235.324 33.8424 234.198 35.112 232.727 36.0234C231.268 36.9349 229.589 37.3906 227.688 37.3906C224.823 37.3906 222.499 36.3945 220.715 34.4023C218.944 32.4102 218.059 29.7734 218.059 26.4922V26.2383ZM221.691 26.668C221.691 29.0117 222.232 30.8932 223.312 32.3125C224.406 33.7318 225.865 34.4414 227.688 34.4414C229.523 34.4414 230.982 33.7253 232.062 32.293C233.143 30.8477 233.684 28.8294 233.684 26.2383C233.684 23.9206 233.13 22.0456 232.023 20.6133C230.93 19.168 229.471 18.4453 227.648 18.4453C225.865 18.4453 224.426 19.1549 223.332 20.5742C222.238 21.9935 221.691 24.0247 221.691 26.668ZM243.605 37V18.6602H240.266V15.8672H243.605V13.6992C243.605 11.4336 244.211 9.68229 245.422 8.44531C246.633 7.20833 248.345 6.58984 250.559 6.58984C251.392 6.58984 252.219 6.70052 253.039 6.92188L252.844 9.85156C252.232 9.73438 251.581 9.67578 250.891 9.67578C249.719 9.67578 248.814 10.0208 248.176 10.7109C247.538 11.388 247.219 12.3646 247.219 13.6406V15.8672H251.73V18.6602H247.219V37H243.605Z" fill="black"/>
<path d="M310 0C282.375 0 260 20.8899 260 46.6552C260 67.273 274.325 84.757 294.187 90.9194C296.687 91.3587 297.604 89.9163 297.604 88.676C297.604 87.568 297.562 84.6326 297.542 80.7447C283.633 83.5595 280.7 74.4851 280.7 74.4851C278.425 69.1003 275.137 67.6618 275.137 67.6618C270.608 64.7691 275.487 64.8274 275.487 64.8274C280.508 65.154 283.146 69.6329 283.146 69.6329C287.604 76.7673 294.85 74.7067 297.708 73.5131C298.158 70.4961 299.446 68.4393 300.875 67.273C289.771 66.1066 278.1 62.0942 278.1 44.2175C278.1 39.1243 280.037 34.9642 283.246 31.6983C282.683 30.5203 280.996 25.777 283.683 19.3503C283.683 19.3503 287.871 18.0983 297.433 24.1324C301.433 23.0943 305.683 22.5811 309.933 22.5578C314.183 22.5811 318.433 23.0943 322.433 24.1324C331.933 18.0983 336.121 19.3503 336.121 19.3503C338.808 25.777 337.121 30.5203 336.621 31.6983C339.808 34.9642 341.746 39.1243 341.746 44.2175C341.746 62.1409 330.058 66.0871 318.933 67.2341C320.683 68.6337 322.308 71.4953 322.308 75.8653C322.308 82.1093 322.246 87.1248 322.246 88.6411C322.246 89.8658 323.121 91.3237 325.683 90.8572C345.687 84.7376 360 67.2419 360 46.6552C360 20.8899 337.612 0 310 0" fill="black"/>
</svg>
